<?xml version="1.0" standalone="no"?>
<!-- shape-rendering crispEdges, geometricPrecision  -->

<svg width="256px" height="512px" viewBox="0 0 64 128">
  <desc>a rounded box</desc>
  <!--<rect x="0" y="0" width="64" height="32" fill="black" stroke="none"/>
  <rect x="1" y="1" width="62" height="30" rx="4" fill="white" stroke="none"/>-->
  <!--<rect x="1" y="1" width="62" height="30" rx="4" fill="rgb(255,255,255)" stroke="black" stroke-width="2"/>-->


   <linearGradient id="grad1" gradientUnits="objectBoundingBox" x1="0%" y1="0%" x2="100%" y2="100%">
      <stop offset="0%" stop-color="rgb(255,255,255)" />
      <stop offset="48%" stop-color="rgb(255,255,255)" />
      <stop offset="52%" stop-color="rgb(165,165,165)" />
      <stop offset="100%" stop-color="rgb(165,165,165)" />
   </linearGradient>
   <linearGradient id="grad1c" gradientUnits="objectBoundingBox" x1="0%" y1="0%" x2="100%" y2="100%">
      <stop offset="0%" stop-color="rgb(255,255,255)" />
      <stop offset="50%" stop-color="rgb(255,255,255)" />
      <stop offset="50%" stop-color="rgb(165,165,165)" />
      <stop offset="100%" stop-color="rgb(165,165,165)" />
   </linearGradient>
  <linearGradient id="grad2" gradientUnits="objectBoundingBox"
    x1="0%" y1="0%" x2="100%" y2="0%">
    <stop offset="0%" stop-color="rgb(220,220,220)" />
    <stop offset="20%" stop-color="rgb(220,220,220)" />
    <stop offset="22%" stop-color="rgb(160,160,160)" />
    <stop offset="24%" stop-color="rgb(180,180,180)" />
    <stop offset="100%" stop-color="rgb(180,180,180)" />
  </linearGradient>
  <linearGradient id="grad3" gradientUnits="objectBoundingBox"
    x1="0%" y1="0%" x2="100%" y2="0%">
    <stop offset="0%" stop-color="rgb(180,180,180)" />
    <stop offset="20%" stop-color="rgb(180,180,180)" />
    <stop offset="22%" stop-color="rgb(160,160,160)" />
    <stop offset="24%" stop-color="rgb(220,220,220)" />
    <stop offset="100%" stop-color="rgb(220,220,220)" />
  </linearGradient>
  <linearGradient id="grad4" gradientUnits="objectBoundingBox"
    x1="0%" y1="0%" x2="0%" y2="100%">
    <stop offset="0%" stop-color="rgb(225,225,225)" />
    <stop offset="100%" stop-color="rgb(170,170,170)" />
  </linearGradient>
  <!--<rect x="1" y="1" width="62" height="30" rx="4" fill="url(#grad1)" stroke="black" stroke-width="2"/>-->
  <!--<rect x="1" y="1" width="62" height="30" rx="4" fill="rgb(220,220,220)" stroke="url(#grad1)" stroke-width="2"/>-->
  <!--<rect x="1" y="1" width="62" height="30" rx="4" fill="url(#grad3)" stroke="url(#grad1)" stroke-width="2"/>-->
  <!--<rect x="0.5" y="0.5" width="63" height="31" rx="4" fill="rgb(220,220,220)" stroke="url(#grad1)" stroke-width="1"/>-->
  <!--<rect x="0.5" y="0.5" width="63" height="31" rx="4" fill="none" stroke="rgb(100,100,100)"/>-->
  <!--<rect x="1" y="1" width="62" height="30" rx="4" fill="url(#grad2)" stroke="url(#grad1)" stroke-width="2"/>-->
<!--
   <rect x="0" y="0" width="64" height="32" rx="5" fill="url(#grad1)" stroke="none"/>
   <rect x="1" y="1" width="62" height="30" rx="5" fill="url(#grad2)" stroke="none"/>
   <rect x="2" y="2" width="60" height="28" rx="5" fill="rgb(220,220,220)" stroke="none"/>
-->

   <clipPath id="clip1">
      <rect x="0" y="0" width="64" height="16"/>
   </clipPath>
   <clipPath id="clip2">
      <rect x="0" y="16" width="64" height="16"/>
   </clipPath>

   <rect x="1" y="1" width="62" height="30" fill="rgb(220,220,220)" stroke="url(#grad1c)" stroke-width="2"/>
   <g transform="translate(0,32)">
      <rect x="1" y="1" width="62" height="30" rx="8" fill="rgb(220,220,220)" stroke="url(#grad1)" stroke-width="2" clip-path="url(#clip1)"/>
      <rect x="1" y="1" width="62" height="30" fill="rgb(220,220,220)" stroke="url(#grad1c)" stroke-width="2" clip-path="url(#clip2)"/>
   </g>
   <g transform="translate(0,64)">
      <rect x="1" y="1" width="62" height="30" fill="rgb(220,220,220)" stroke="url(#grad1c)" stroke-width="2" clip-path="url(#clip1)"/>
      <rect x="1" y="1" width="62" height="30" rx="8" fill="rgb(220,220,220)" stroke="url(#grad1)" stroke-width="2" clip-path="url(#clip2)"/>
   </g>
   <g transform="translate(0,96)">
      <rect x="1" y="1" width="62" height="30" rx="8" fill="rgb(220,220,220)" stroke="url(#grad1)" stroke-width="2"/>
   </g>


</svg>
